<svg xmlns="http://www.w3.org/2000/svg" xmlns:xlink="http://www.w3.org/1999/xlink" contentStyleType="text/css" data-diagram-type="CLASS" height="670px" preserveAspectRatio="none" style="width:1332px;height:670px;background:#FFFFFF;" version="1.1" viewBox="0 0 1332 670" width="1332px" zoomAndPan="magnify"><defs/><g><!--class U--><g class="entity" data-entity="U" data-source-line="1" data-uid="ent0002" id="entity_U"><rect fill="#F1F1F1" height="145.7813" rx="2.5" ry="2.5" style="stroke:#181818;stroke-width:0.5;" width="257.5469" x="442.5" y="7"/><ellipse cx="551.0684" cy="23" fill="#ADD1B2" rx="11" ry="11" style="stroke:#181818;stroke-width:1;"/><path d="M555.1777,29 L547.459,29 L547.459,16.6094 L555.1777,16.6094 L555.1777,18.7656 L549.9121,18.7656 L549.9121,21.4375 L554.6777,21.4375 L554.6777,23.5938 L549.9121,23.5938 L549.9121,26.8438 L555.1777,26.8438 L555.1777,29 Z " fill="#000000"/><text fill="#000000" font-family="sans-serif" font-size="14" lengthAdjust="spacing" textLength="31.9102" x="571.5684" y="27.8467">User</text><line style="stroke:#181818;stroke-width:0.5;" x1="443.5" x2="699.0469" y1="39" y2="39"/><ellipse cx="453.5" cy="52.6484" fill="#000000" rx="3" ry="3" style="stroke:#000000;stroke-width:1;"/><text fill="#000000" font-family="sans-serif" font-size="14" lengthAdjust="spacing" textLength="81.5527" x="462.5" y="55.9951">user_id : PK</text><line style="stroke:#181818;stroke-width:1;" x1="443.5" x2="699.0469" y1="63.2969" y2="63.2969"/><text fill="#000000" font-family="sans-serif" font-size="14" lengthAdjust="spacing" textLength="137.3818" x="448.5" y="80.292">username : varchar</text><text fill="#000000" font-family="sans-serif" font-size="14" lengthAdjust="spacing" textLength="105.752" x="448.5" y="96.5889">email : varchar</text><text fill="#000000" font-family="sans-serif" font-size="14" lengthAdjust="spacing" textLength="174.4736" x="448.5" y="112.8857">password_hash : varchar</text><text fill="#000000" font-family="sans-serif" font-size="14" lengthAdjust="spacing" textLength="245.5469" x="448.5" y="129.1826">role : enum {Client, Seller, Admin}</text><text fill="#000000" font-family="sans-serif" font-size="14" lengthAdjust="spacing" textLength="151.5186" x="448.5" y="145.4795">created_at : datetime</text></g><!--class P--><g class="entity" data-entity="P" data-source-line="11" data-uid="ent0003" id="entity_P"><rect fill="#F1F1F1" height="210.9688" rx="2.5" ry="2.5" style="stroke:#181818;stroke-width:0.5;" width="263.1318" x="748" y="230"/><ellipse cx="848.4609" cy="246" fill="#ADD1B2" rx="11" ry="11" style="stroke:#181818;stroke-width:1;"/><path d="M852.5703,252 L844.8516,252 L844.8516,239.6094 L852.5703,239.6094 L852.5703,241.7656 L847.3047,241.7656 L847.3047,244.4375 L852.0703,244.4375 L852.0703,246.5938 L847.3047,246.5938 L847.3047,249.8438 L852.5703,249.8438 L852.5703,252 Z " fill="#000000"/><text fill="#000000" font-family="sans-serif" font-size="14" lengthAdjust="spacing" textLength="53.71" x="868.9609" y="250.8467">Product</text><line style="stroke:#181818;stroke-width:0.5;" x1="749" x2="1010.1318" y1="262" y2="262"/><ellipse cx="759" cy="275.6484" fill="#000000" rx="3" ry="3" style="stroke:#000000;stroke-width:1;"/><text fill="#000000" font-family="sans-serif" font-size="14" lengthAdjust="spacing" textLength="105.1709" x="768" y="278.9951">product_id : PK</text><line style="stroke:#181818;stroke-width:1;" x1="749" x2="1010.1318" y1="286.2969" y2="286.2969"/><text fill="#000000" font-family="sans-serif" font-size="14" lengthAdjust="spacing" textLength="94.5137" x="754" y="303.292">title : varchar</text><text fill="#000000" font-family="sans-serif" font-size="14" lengthAdjust="spacing" textLength="119.335" x="754" y="319.5889">description : text</text><text fill="#000000" font-family="sans-serif" font-size="14" lengthAdjust="spacing" textLength="103.6533" x="754" y="335.8857">price : decimal</text><text fill="#000000" font-family="sans-serif" font-size="14" lengthAdjust="spacing" textLength="69.0225" x="754" y="352.1826">stock : int</text><text fill="#000000" font-family="sans-serif" font-size="14" lengthAdjust="spacing" textLength="151.5186" x="754" y="368.4795">created_at : datetime</text><text fill="#000000" font-family="sans-serif" font-size="14" lengthAdjust="spacing" textLength="201.0381" x="754" y="384.7764">seller_id : FK -&gt; User.user_id</text><text fill="#000000" font-family="sans-serif" font-size="14" lengthAdjust="spacing" textLength="251.1318" x="754" y="401.0732">type_id : FK -&gt; ProductType.type_id</text><text fill="#000000" font-family="sans-serif" font-size="14" lengthAdjust="spacing" textLength="224.1982" x="754" y="417.3701">brand_id : FK -&gt; Brand.brand_id</text><text fill="#000000" font-family="sans-serif" font-size="14" lengthAdjust="spacing" textLength="165.2314" x="754" y="433.667">removed_flag : boolean</text></g><!--class PT--><g class="entity" data-entity="PT" data-source-line="25" data-uid="ent0004" id="entity_PT"><rect fill="#F1F1F1" height="80.5938" rx="2.5" ry="2.5" style="stroke:#181818;stroke-width:0.5;" width="120.0469" x="815.5" y="39.5"/><ellipse cx="830.5" cy="55.5" fill="#ADD1B2" rx="11" ry="11" style="stroke:#181818;stroke-width:1;"/><path d="M834.6094,61.5 L826.8906,61.5 L826.8906,49.1094 L834.6094,49.1094 L834.6094,51.2656 L829.3438,51.2656 L829.3438,53.9375 L834.1094,53.9375 L834.1094,56.0938 L829.3438,56.0938 L829.3438,59.3438 L834.6094,59.3438 L834.6094,61.5 Z " fill="#000000"/><text fill="#000000" font-family="sans-serif" font-size="14" lengthAdjust="spacing" textLength="88.0469" x="844.5" y="60.3467">ProductType</text><line style="stroke:#181818;stroke-width:0.5;" x1="816.5" x2="934.5469" y1="71.5" y2="71.5"/><ellipse cx="826.5" cy="85.1484" fill="#000000" rx="3" ry="3" style="stroke:#000000;stroke-width:1;"/><text fill="#000000" font-family="sans-serif" font-size="14" lengthAdjust="spacing" textLength="82.291" x="835.5" y="88.4951">type_id : PK</text><line style="stroke:#181818;stroke-width:1;" x1="816.5" x2="934.5469" y1="95.7969" y2="95.7969"/><text fill="#000000" font-family="sans-serif" font-size="14" lengthAdjust="spacing" textLength="106.8457" x="821.5" y="112.792">name : varchar</text></g><!--class B--><g class="entity" data-entity="B" data-source-line="31" data-uid="ent0005" id="entity_B"><rect fill="#F1F1F1" height="80.5938" rx="2.5" ry="2.5" style="stroke:#181818;stroke-width:0.5;" width="118.8457" x="971" y="39.5"/><ellipse cx="1006.3159" cy="55.5" fill="#ADD1B2" rx="11" ry="11" style="stroke:#181818;stroke-width:1;"/><path d="M1010.4253,61.5 L1002.7065,61.5 L1002.7065,49.1094 L1010.4253,49.1094 L1010.4253,51.2656 L1005.1597,51.2656 L1005.1597,53.9375 L1009.9253,53.9375 L1009.9253,56.0938 L1005.1597,56.0938 L1005.1597,59.3438 L1010.4253,59.3438 L1010.4253,61.5 Z " fill="#000000"/><text fill="#000000" font-family="sans-serif" font-size="14" lengthAdjust="spacing" textLength="41.6992" x="1024.8306" y="60.3467">Brand</text><line style="stroke:#181818;stroke-width:0.5;" x1="972" x2="1088.8457" y1="71.5" y2="71.5"/><ellipse cx="982" cy="85.1484" fill="#000000" rx="3" ry="3" style="stroke:#000000;stroke-width:1;"/><text fill="#000000" font-family="sans-serif" font-size="14" lengthAdjust="spacing" textLength="91.998" x="991" y="88.4951">brand_id : PK</text><line style="stroke:#181818;stroke-width:1;" x1="972" x2="1088.8457" y1="95.7969" y2="95.7969"/><text fill="#000000" font-family="sans-serif" font-size="14" lengthAdjust="spacing" textLength="106.8457" x="977" y="112.792">name : varchar</text></g><!--class R--><g class="entity" data-entity="R" data-source-line="37" data-uid="ent0006" id="entity_R"><rect fill="#F1F1F1" height="145.7813" rx="2.5" ry="2.5" style="stroke:#181818;stroke-width:0.5;" width="274.5547" x="325" y="518"/><ellipse cx="432.7378" cy="534" fill="#ADD1B2" rx="11" ry="11" style="stroke:#181818;stroke-width:1;"/><path d="M436.8472,540 L429.1284,540 L429.1284,527.6094 L436.8472,527.6094 L436.8472,529.7656 L431.5815,529.7656 L431.5815,532.4375 L436.3472,532.4375 L436.3472,534.5938 L431.5815,534.5938 L431.5815,537.8438 L436.8472,537.8438 L436.8472,540 Z " fill="#000000"/><text fill="#000000" font-family="sans-serif" font-size="14" lengthAdjust="spacing" textLength="50.5791" x="453.2378" y="538.8467">Review</text><line style="stroke:#181818;stroke-width:0.5;" x1="326" x2="598.5547" y1="550" y2="550"/><ellipse cx="336" cy="563.6484" fill="#000000" rx="3" ry="3" style="stroke:#000000;stroke-width:1;"/><text fill="#000000" font-family="sans-serif" font-size="14" lengthAdjust="spacing" textLength="97.624" x="345" y="566.9951">review_id : PK</text><line style="stroke:#181818;stroke-width:1;" x1="326" x2="598.5547" y1="574.2969" y2="574.2969"/><text fill="#000000" font-family="sans-serif" font-size="14" lengthAdjust="spacing" textLength="262.5547" x="331" y="591.292">product_id : FK -&gt; Product.product_id</text><text fill="#000000" font-family="sans-serif" font-size="14" lengthAdjust="spacing" textLength="193.5186" x="331" y="607.5889">user_id : FK -&gt; User.user_id</text><text fill="#000000" font-family="sans-serif" font-size="14" lengthAdjust="spacing" textLength="73.3428" x="331" y="623.8857">rating : int</text><text fill="#000000" font-family="sans-serif" font-size="14" lengthAdjust="spacing" textLength="108.0078" x="331" y="640.1826">comment : text</text><text fill="#000000" font-family="sans-serif" font-size="14" lengthAdjust="spacing" textLength="151.5186" x="331" y="656.4795">created_at : datetime</text></g><!--class O--><g class="entity" data-entity="O" data-source-line="47" data-uid="ent0007" id="entity_O"><rect fill="#F1F1F1" height="145.7813" rx="2.5" ry="2.5" style="stroke:#181818;stroke-width:0.5;" width="279.4629" x="1046" y="262.5"/><ellipse cx="1161.4658" cy="278.5" fill="#ADD1B2" rx="11" ry="11" style="stroke:#181818;stroke-width:1;"/><path d="M1165.5752,284.5 L1157.8564,284.5 L1157.8564,272.1094 L1165.5752,272.1094 L1165.5752,274.2656 L1160.3096,274.2656 L1160.3096,276.9375 L1165.0752,276.9375 L1165.0752,279.0938 L1160.3096,279.0938 L1160.3096,282.3438 L1165.5752,282.3438 L1165.5752,284.5 Z " fill="#000000"/><text fill="#000000" font-family="sans-serif" font-size="14" lengthAdjust="spacing" textLength="40.0313" x="1181.9658" y="283.3467">Order</text><line style="stroke:#181818;stroke-width:0.5;" x1="1047" x2="1324.4629" y1="294.5" y2="294.5"/><ellipse cx="1057" cy="308.1484" fill="#000000" rx="3" ry="3" style="stroke:#000000;stroke-width:1;"/><text fill="#000000" font-family="sans-serif" font-size="14" lengthAdjust="spacing" textLength="88.5938" x="1066" y="311.4951">order_id : PK</text><line style="stroke:#181818;stroke-width:1;" x1="1047" x2="1324.4629" y1="318.7969" y2="318.7969"/><text fill="#000000" font-family="sans-serif" font-size="14" lengthAdjust="spacing" textLength="193.5186" x="1052" y="335.792">user_id : FK -&gt; User.user_id</text><text fill="#000000" font-family="sans-serif" font-size="14" lengthAdjust="spacing" textLength="142.666" x="1052" y="352.0889">total_price : decimal</text><text fill="#000000" font-family="sans-serif" font-size="14" lengthAdjust="spacing" textLength="110.1611" x="1052" y="368.3857">status : varchar</text><text fill="#000000" font-family="sans-serif" font-size="14" lengthAdjust="spacing" textLength="151.5186" x="1052" y="384.6826">created_at : datetime</text><text fill="#000000" font-family="sans-serif" font-size="14" lengthAdjust="spacing" textLength="267.4629" x="1052" y="400.9795">address_id : FK -&gt; Address.address_id</text></g><!--class OI--><g class="entity" data-entity="OI" data-source-line="57" data-uid="ent0008" id="entity_OI"><rect fill="#F1F1F1" height="129.4844" rx="2.5" ry="2.5" style="stroke:#181818;stroke-width:0.5;" width="274.5547" x="998" y="526.5"/><ellipse cx="1095.0771" cy="542.5" fill="#ADD1B2" rx="11" ry="11" style="stroke:#181818;stroke-width:1;"/><path d="M1099.1865,548.5 L1091.4678,548.5 L1091.4678,536.1094 L1099.1865,536.1094 L1099.1865,538.2656 L1093.9209,538.2656 L1093.9209,540.9375 L1098.6865,540.9375 L1098.6865,543.0938 L1093.9209,543.0938 L1093.9209,546.3438 L1099.1865,546.3438 L1099.1865,548.5 Z " fill="#000000"/><text fill="#000000" font-family="sans-serif" font-size="14" lengthAdjust="spacing" textLength="71.9004" x="1115.5771" y="547.3467">OrderItem</text><line style="stroke:#181818;stroke-width:0.5;" x1="999" x2="1271.5547" y1="558.5" y2="558.5"/><ellipse cx="1009" cy="572.1484" fill="#000000" rx="3" ry="3" style="stroke:#000000;stroke-width:1;"/><text fill="#000000" font-family="sans-serif" font-size="14" lengthAdjust="spacing" textLength="120.2236" x="1018" y="575.4951">orderitem_id : PK</text><line style="stroke:#181818;stroke-width:1;" x1="999" x2="1271.5547" y1="582.7969" y2="582.7969"/><text fill="#000000" font-family="sans-serif" font-size="14" lengthAdjust="spacing" textLength="215.7217" x="1004" y="599.792">order_id : FK -&gt; Order.order_id</text><text fill="#000000" font-family="sans-serif" font-size="14" lengthAdjust="spacing" textLength="262.5547" x="1004" y="616.0889">product_id : FK -&gt; Product.product_id</text><text fill="#000000" font-family="sans-serif" font-size="14" lengthAdjust="spacing" textLength="90.2344" x="1004" y="632.3857">quantity : int</text><text fill="#000000" font-family="sans-serif" font-size="14" lengthAdjust="spacing" textLength="196.2939" x="1004" y="648.6826">price_at_purchase : decimal</text></g><!--class CI--><g class="entity" data-entity="CI" data-source-line="66" data-uid="ent0009" id="entity_CI"><rect fill="#F1F1F1" height="129.4844" rx="2.5" ry="2.5" style="stroke:#181818;stroke-width:0.5;" width="274.5547" x="639" y="526.5"/><ellipse cx="741.293" cy="542.5" fill="#ADD1B2" rx="11" ry="11" style="stroke:#181818;stroke-width:1;"/><path d="M745.4023,548.5 L737.6836,548.5 L737.6836,536.1094 L745.4023,536.1094 L745.4023,538.2656 L740.1367,538.2656 L740.1367,540.9375 L744.9023,540.9375 L744.9023,543.0938 L740.1367,543.0938 L740.1367,546.3438 L745.4023,546.3438 L745.4023,548.5 Z " fill="#000000"/><text fill="#000000" font-family="sans-serif" font-size="14" lengthAdjust="spacing" textLength="61.4688" x="761.793" y="547.3467">CartItem</text><line style="stroke:#181818;stroke-width:0.5;" x1="640" x2="912.5547" y1="558.5" y2="558.5"/><ellipse cx="650" cy="572.1484" fill="#000000" rx="3" ry="3" style="stroke:#000000;stroke-width:1;"/><text fill="#000000" font-family="sans-serif" font-size="14" lengthAdjust="spacing" textLength="110.168" x="659" y="575.4951">cartitem_id : PK</text><line style="stroke:#181818;stroke-width:1;" x1="640" x2="912.5547" y1="582.7969" y2="582.7969"/><text fill="#000000" font-family="sans-serif" font-size="14" lengthAdjust="spacing" textLength="193.5186" x="645" y="599.792">user_id : FK -&gt; User.user_id</text><text fill="#000000" font-family="sans-serif" font-size="14" lengthAdjust="spacing" textLength="262.5547" x="645" y="616.0889">product_id : FK -&gt; Product.product_id</text><text fill="#000000" font-family="sans-serif" font-size="14" lengthAdjust="spacing" textLength="90.2344" x="645" y="632.3857">quantity : int</text><text fill="#000000" font-family="sans-serif" font-size="14" lengthAdjust="spacing" textLength="141.7363" x="645" y="648.6826">added_at : datetime</text></g><!--class WI--><g class="entity" data-entity="WI" data-source-line="75" data-uid="ent0010" id="entity_WI"><rect fill="#F1F1F1" height="113.1875" rx="2.5" ry="2.5" style="stroke:#181818;stroke-width:0.5;" width="274.5547" x="7" y="534.5"/><ellipse cx="96.8618" cy="550.5" fill="#ADD1B2" rx="11" ry="11" style="stroke:#181818;stroke-width:1;"/><path d="M100.9712,556.5 L93.2524,556.5 L93.2524,544.1094 L100.9712,544.1094 L100.9712,546.2656 L95.7056,546.2656 L95.7056,548.9375 L100.4712,548.9375 L100.4712,551.0938 L95.7056,551.0938 L95.7056,554.3438 L100.9712,554.3438 L100.9712,556.5 Z " fill="#000000"/><text fill="#000000" font-family="sans-serif" font-size="14" lengthAdjust="spacing" textLength="86.3311" x="117.3618" y="555.3467">WishlistItem</text><line style="stroke:#181818;stroke-width:0.5;" x1="8" x2="280.5547" y1="566.5" y2="566.5"/><ellipse cx="18" cy="580.1484" fill="#000000" rx="3" ry="3" style="stroke:#000000;stroke-width:1;"/><text fill="#000000" font-family="sans-serif" font-size="14" lengthAdjust="spacing" textLength="134.7158" x="27" y="583.4951">wishlistitem_id : PK</text><line style="stroke:#181818;stroke-width:1;" x1="8" x2="280.5547" y1="590.7969" y2="590.7969"/><text fill="#000000" font-family="sans-serif" font-size="14" lengthAdjust="spacing" textLength="193.5186" x="13" y="607.792">user_id : FK -&gt; User.user_id</text><text fill="#000000" font-family="sans-serif" font-size="14" lengthAdjust="spacing" textLength="262.5547" x="13" y="624.0889">product_id : FK -&gt; Product.product_id</text><text fill="#000000" font-family="sans-serif" font-size="14" lengthAdjust="spacing" textLength="141.7363" x="13" y="640.3857">added_at : datetime</text></g><!--class A--><g class="entity" data-entity="A" data-source-line="83" data-uid="ent0011" id="entity_A"><rect fill="#F1F1F1" height="162.0781" rx="2.5" ry="2.5" style="stroke:#181818;stroke-width:0.5;" width="205.5186" x="366.5" y="254.5"/><ellipse cx="436.8555" cy="270.5" fill="#ADD1B2" rx="11" ry="11" style="stroke:#181818;stroke-width:1;"/><path d="M440.9648,276.5 L433.2461,276.5 L433.2461,264.1094 L440.9648,264.1094 L440.9648,266.2656 L435.6992,266.2656 L435.6992,268.9375 L440.4648,268.9375 L440.4648,271.0938 L435.6992,271.0938 L435.6992,274.3438 L440.9648,274.3438 L440.9648,276.5 Z " fill="#000000"/><text fill="#000000" font-family="sans-serif" font-size="14" lengthAdjust="spacing" textLength="56.3076" x="457.3555" y="275.3467">Address</text><line style="stroke:#181818;stroke-width:0.5;" x1="367.5" x2="571.0186" y1="286.5" y2="286.5"/><ellipse cx="377.5" cy="300.1484" fill="#000000" rx="3" ry="3" style="stroke:#000000;stroke-width:1;"/><text fill="#000000" font-family="sans-serif" font-size="14" lengthAdjust="spacing" textLength="106.3262" x="386.5" y="303.4951">address_id : PK</text><line style="stroke:#181818;stroke-width:1;" x1="367.5" x2="571.0186" y1="310.7969" y2="310.7969"/><text fill="#000000" font-family="sans-serif" font-size="14" lengthAdjust="spacing" textLength="193.5186" x="372.5" y="327.792">user_id : FK -&gt; User.user_id</text><text fill="#000000" font-family="sans-serif" font-size="14" lengthAdjust="spacing" textLength="108.3975" x="372.5" y="344.0889">street : varchar</text><text fill="#000000" font-family="sans-serif" font-size="14" lengthAdjust="spacing" textLength="92.5039" x="372.5" y="360.3857">city : varchar</text><text fill="#000000" font-family="sans-serif" font-size="14" lengthAdjust="spacing" textLength="150.6094" x="372.5" y="376.6826">postal_code : varchar</text><text fill="#000000" font-family="sans-serif" font-size="14" lengthAdjust="spacing" textLength="120.6816" x="372.5" y="392.9795">country : varchar</text><text fill="#000000" font-family="sans-serif" font-size="14" lengthAdjust="spacing" textLength="110.9541" x="372.5" y="409.2764">phone : varchar</text></g><!--link U to P--><g class="link" data-entity-1="U" data-entity-2="P" data-source-line="94" data-uid="lnk12" id="link_U_P"><path codeLine="94" d="M665.5261,158.3849 C694.5061,182.2449 707.2699,192.7538 738.5799,218.5138" fill="none" id="U-P" style="stroke:#181818;stroke-width:1;"/><line style="stroke:#181818;stroke-width:1;" x1="659.8956" x2="664.9805" y1="158.9305" y2="152.7544"/><line style="stroke:#181818;stroke-width:1;" x1="662.2116" x2="667.2965" y1="160.8373" y2="154.6613"/><line style="stroke:#181818;stroke-width:1;" x1="665.5261" x2="659.35" y1="158.3849" y2="153.3"/><line style="stroke:#181818;stroke-width:1;" x1="746.3022" x2="756.2921" y1="224.8672" y2="225.3166"/><line style="stroke:#181818;stroke-width:1;" x1="746.3022" x2="748.6679" y1="224.8672" y2="234.5834"/><line style="stroke:#181818;stroke-width:1;" x1="746.3022" x2="752.48" y1="224.8672" y2="229.95"/><ellipse cx="741.6688" cy="221.0552" fill="none" rx="4" ry="4" style="stroke:#181818;stroke-width:1;"/><text fill="#000000" font-family="sans-serif" font-size="13" lengthAdjust="spacing" textLength="28.7676" x="708.5" y="196.0669">sells</text></g><!--link U to O--><g class="link" data-entity-1="U" data-entity-2="O" data-source-line="95" data-uid="lnk13" id="link_U_O"><path codeLine="95" d="M708.0078,153.8692 C747.1478,172.4392 783.65,187.4 825.5,200 C912.83,226.29 943.37,197.28 1028.5,230 C1050.05,238.28 1056.3828,240.3633 1076.3528,252.8933" fill="none" id="U-O" style="stroke:#181818;stroke-width:1;"/><line style="stroke:#181818;stroke-width:1;" x1="702.6793" x2="706.1085" y1="155.7685" y2="148.5407"/><line style="stroke:#181818;stroke-width:1;" x1="705.3897" x2="708.8189" y1="157.0544" y2="149.8267"/><line style="stroke:#181818;stroke-width:1;" x1="708.0078" x2="700.78" y1="153.8692" y2="150.44"/><line style="stroke:#181818;stroke-width:1;" x1="1084.8235" x2="1094.7889" y1="258.2081" y2="257.3776"/><line style="stroke:#181818;stroke-width:1;" x1="1084.8235" x2="1088.4111" y1="258.2081" y2="267.5424"/><line style="stroke:#181818;stroke-width:1;" x1="1084.8235" x2="1091.6" y1="258.2081" y2="262.46"/><ellipse cx="1079.7411" cy="255.0192" fill="none" rx="4" ry="4" style="stroke:#181818;stroke-width:1;"/><text fill="#000000" font-family="sans-serif" font-size="13" lengthAdjust="spacing" textLength="41.7485" x="826.5" y="196.0669">places</text></g><!--link U to R--><g class="link" data-entity-1="U" data-entity-2="R" data-source-line="96" data-uid="lnk14" id="link_U_R"><path codeLine="96" d="M435.1047,124.673 C383.6847,147.813 337.09,179.32 307.5,230 C260.21,310.98 270.76,354.72 307.5,441 C319.78,469.85 327.7631,483.2842 350.3231,505.1442" fill="none" id="U-R" style="stroke:#181818;stroke-width:1;"/><line style="stroke:#181818;stroke-width:1;" x1="437.1108" x2="440.3939" y1="119.3839" y2="126.6792"/><line style="stroke:#181818;stroke-width:1;" x1="434.3751" x2="437.6581" y1="120.615" y2="127.9103"/><line style="stroke:#181818;stroke-width:1;" x1="435.1047" x2="442.4" y1="124.673" y2="121.39"/><line style="stroke:#181818;stroke-width:1;" x1="357.5047" x2="367.4253" y1="512.103" y2="513.361"/><line style="stroke:#181818;stroke-width:1;" x1="357.5047" x2="359.0747" y1="512.103" y2="521.979"/><line style="stroke:#181818;stroke-width:1;" x1="357.5047" x2="363.25" y1="512.103" y2="517.67"/><ellipse cx="353.1958" cy="507.9277" fill="none" rx="4" ry="4" style="stroke:#181818;stroke-width:1;"/><text fill="#000000" font-family="sans-serif" font-size="13" lengthAdjust="spacing" textLength="39.457" x="308.5" y="340.0669">writes</text></g><!--link U to CI--><g class="link" data-entity-1="U" data-entity-2="CI" data-source-line="97" data-uid="lnk15" id="link_U_CI"><path codeLine="97" d="M612.5195,160.5739 C616.7295,170.4039 617.44,173.15 620.5,183 C654.88,293.83 614.5,334.47 660.5,441 C673.76,471.7 683.3857,487.7296 703.9757,512.5796" fill="none" id="U-CI" style="stroke:#181818;stroke-width:1;"/><line style="stroke:#181818;stroke-width:1;" x1="607.2678" x2="614.6217" y1="158.4717" y2="155.3222"/><line style="stroke:#181818;stroke-width:1;" x1="608.4489" x2="615.8028" y1="161.2295" y2="158.0799"/><line style="stroke:#181818;stroke-width:1;" x1="612.5195" x2="609.37" y1="160.5739" y2="153.22"/><line style="stroke:#181818;stroke-width:1;" x1="710.3559" x2="720.0801" y1="520.2798" y2="522.6119"/><line style="stroke:#181818;stroke-width:1;" x1="710.3559" x2="710.8399" y1="520.2798" y2="530.2681"/><line style="stroke:#181818;stroke-width:1;" x1="710.3559" x2="715.46" y1="520.2798" y2="526.44"/><ellipse cx="706.5277" cy="515.6597" fill="none" rx="4" ry="4" style="stroke:#181818;stroke-width:1;"/><text fill="#000000" font-family="sans-serif" font-size="13" lengthAdjust="spacing" textLength="68.6499" x="661.5" y="340.0669">has in cart</text></g><!--link U to WI--><g class="link" data-entity-1="U" data-entity-2="WI" data-source-line="98" data-uid="lnk16" id="link_U_WI"><path codeLine="98" d="M434.5092,95.4721 C344.7592,111.8021 238.27,147.16 175.5,230 C108.25,318.75 116.3244,439.7578 129.4544,516.4978" fill="none" id="U-WI" style="stroke:#181818;stroke-width:1;"/><line style="stroke:#181818;stroke-width:1;" x1="437.7286" x2="439.1607" y1="90.8207" y2="98.6914"/><line style="stroke:#181818;stroke-width:1;" x1="434.777" x2="436.2091" y1="91.3577" y2="99.2285"/><line style="stroke:#181818;stroke-width:1;" x1="434.5092" x2="442.38" y1="95.4721" y2="94.04"/><line style="stroke:#181818;stroke-width:1;" x1="131.1408" x2="138.4041" y1="526.3546" y2="533.2281"/><line style="stroke:#181818;stroke-width:1;" x1="131.1408" x2="126.5759" y1="526.3546" y2="535.2519"/><line style="stroke:#181818;stroke-width:1;" x1="131.1408" x2="132.49" y1="526.3546" y2="534.24"/><ellipse cx="130.1289" cy="520.4405" fill="none" rx="4" ry="4" style="stroke:#181818;stroke-width:1;"/><text fill="#000000" font-family="sans-serif" font-size="13" lengthAdjust="spacing" textLength="91.4443" x="176.5" y="340.0669">has in wishlist</text></g><!--link U to A--><g class="link" data-entity-1="U" data-entity-2="A" data-source-line="99" data-uid="lnk17" id="link_U_A"><path codeLine="99" d="M531.3373,160.445 C526.6873,170.375 525.54,173.25 521.5,183 C512.02,205.86 508.6507,214.1037 500.7207,237.3537" fill="none" id="U-A" style="stroke:#181818;stroke-width:1;"/><line style="stroke:#181818;stroke-width:1;" x1="529.4112" x2="536.6562" y1="155.1262" y2="158.5188"/><line style="stroke:#181818;stroke-width:1;" x1="528.1389" x2="535.3839" y1="157.843" y2="161.2357"/><line style="stroke:#181818;stroke-width:1;" x1="531.3373" x2="534.73" y1="160.445" y2="153.2"/><line style="stroke:#181818;stroke-width:1;" x1="497.4925" x2="500.5888" y1="246.8183" y2="256.3269"/><line style="stroke:#181818;stroke-width:1;" x1="497.4925" x2="489.2312" y1="246.8183" y2="252.4531"/><line style="stroke:#181818;stroke-width:1;" x1="497.4925" x2="494.91" y1="246.8183" y2="254.39"/><ellipse cx="499.4294" cy="241.1395" fill="none" rx="4" ry="4" style="stroke:#181818;stroke-width:1;"/><text fill="#000000" font-family="sans-serif" font-size="13" lengthAdjust="spacing" textLength="93.2407" x="522.5" y="196.0669">has addresses</text></g><!--link P to R--><g class="link" data-entity-1="P" data-entity-2="R" data-source-line="101" data-uid="lnk18" id="link_P_R"><path codeLine="101" d="M741.2477,428.0603 C731.9777,433.9503 729.5,435.45 720.5,441 C678.67,466.79 647.9665,484.9912 606.2565,508.9612" fill="none" id="P-R" style="stroke:#181818;stroke-width:1;"/><line style="stroke:#181818;stroke-width:1;" x1="742.4787" x2="746.769" y1="422.539" y2="429.2913"/><line style="stroke:#181818;stroke-width:1;" x1="739.9466" x2="744.2369" y1="424.1479" y2="430.9001"/><line style="stroke:#181818;stroke-width:1;" x1="741.2477" x2="748" y1="428.0603" y2="423.77"/><line style="stroke:#181818;stroke-width:1;" x1="597.5862" x2="593.6396" y1="513.9439" y2="523.1322"/><line style="stroke:#181818;stroke-width:1;" x1="597.5862" x2="587.6604" y1="513.9439" y2="512.7278"/><line style="stroke:#181818;stroke-width:1;" x1="597.5862" x2="590.65" y1="513.9439" y2="517.93"/><ellipse cx="602.7884" cy="510.9543" fill="none" rx="4" ry="4" style="stroke:#181818;stroke-width:1;"/><text fill="#000000" font-family="sans-serif" font-size="13" lengthAdjust="spacing" textLength="22.9785" x="666.5" y="484.0669">has</text></g><!--link P to OI--><g class="link" data-entity-1="P" data-entity-2="OI" data-source-line="102" data-uid="lnk19" id="link_P_OI"><path codeLine="102" d="M990.784,446.6995 C1019.984,475.6195 1032.3209,487.8235 1058.3909,513.6435" fill="none" id="P-OI" style="stroke:#181818;stroke-width:1;"/><line style="stroke:#181818;stroke-width:1;" x1="985.1273" x2="990.7568" y1="446.7268" y2="441.0427"/><line style="stroke:#181818;stroke-width:1;" x1="987.2588" x2="992.8883" y1="448.8379" y2="443.1538"/><line style="stroke:#181818;stroke-width:1;" x1="990.784" x2="985.1" y1="446.6995" y2="441.07"/><line style="stroke:#181818;stroke-width:1;" x1="1065.496" x2="1075.4022" y1="520.6805" y2="522.047"/><line style="stroke:#181818;stroke-width:1;" x1="1065.496" x2="1066.9578" y1="520.6805" y2="530.573"/><line style="stroke:#181818;stroke-width:1;" x1="1065.496" x2="1071.18" y1="520.6805" y2="526.31"/><ellipse cx="1061.2329" cy="516.4583" fill="none" rx="4" ry="4" style="stroke:#181818;stroke-width:1;"/><text fill="#000000" font-family="sans-serif" font-size="13" lengthAdjust="spacing" textLength="68.5356" x="1030.5" y="484.0669">appears in</text></g><!--link P to CI--><g class="link" data-entity-1="P" data-entity-2="CI" data-source-line="103" data-uid="lnk20" id="link_P_CI"><path codeLine="103" d="M833.9987,448.4816 C822.2487,477.4016 819.6451,483.8137 809.1551,509.6337" fill="none" id="P-CI" style="stroke:#181818;stroke-width:1;"/><line style="stroke:#181818;stroke-width:1;" x1="831.7985" x2="839.2102" y1="443.2702" y2="446.2815"/><line style="stroke:#181818;stroke-width:1;" x1="830.6693" x2="838.0809" y1="446.0495" y2="449.0608"/><line style="stroke:#181818;stroke-width:1;" x1="833.9987" x2="837.01" y1="448.4816" y2="441.07"/><line style="stroke:#181818;stroke-width:1;" x1="805.3912" x2="807.9388" y1="518.8983" y2="528.5684"/><line style="stroke:#181818;stroke-width:1;" x1="805.3912" x2="796.8212" y1="518.8983" y2="524.0516"/><line style="stroke:#181818;stroke-width:1;" x1="805.3912" x2="802.38" y1="518.8983" y2="526.31"/><ellipse cx="807.6495" cy="513.3396" fill="none" rx="4" ry="4" style="stroke:#181818;stroke-width:1;"/><text fill="#000000" font-family="sans-serif" font-size="13" lengthAdjust="spacing" textLength="56.0562" x="822.5" y="484.0669">is in cart</text></g><!--link P to WI--><g class="link" data-entity-1="P" data-entity-2="WI" data-source-line="104" data-uid="lnk21" id="link_P_WI"><path codeLine="104" d="M740.4606,432.2795 C731.4806,436.8195 729.55,437.38 720.5,441 C650.88,468.82 628.22,457.33 554.5,471 C444.63,491.38 414.19,484.76 307.5,518 C292.44,522.69 293.6218,521.6831 278.4018,527.7731" fill="none" id="P-WI" style="stroke:#181818;stroke-width:1;"/><line style="stroke:#181818;stroke-width:1;" x1="742.2255" x2="745.835" y1="426.905" y2="434.0445"/><line style="stroke:#181818;stroke-width:1;" x1="739.5482" x2="743.1577" y1="428.2586" y2="435.398"/><line style="stroke:#181818;stroke-width:1;" x1="740.4606" x2="747.6" y1="432.2795" y2="428.67"/><line style="stroke:#181818;stroke-width:1;" x1="269.1175" x2="263.919" y1="531.488" y2="540.0306"/><line style="stroke:#181818;stroke-width:1;" x1="269.1175" x2="259.461" y1="531.488" y2="528.8894"/><line style="stroke:#181818;stroke-width:1;" x1="269.1175" x2="261.69" y1="531.488" y2="534.46"/><ellipse cx="274.6881" cy="529.2591" fill="none" rx="4" ry="4" style="stroke:#181818;stroke-width:1;"/><text fill="#000000" font-family="sans-serif" font-size="13" lengthAdjust="spacing" textLength="79.1172" x="555.5" y="484.0669">is wishlisted</text></g><!--link O to OI--><g class="link" data-entity-1="O" data-entity-2="OI" data-source-line="106" data-uid="lnk22" id="link_O_OI"><path codeLine="106" d="M1169.6927,416.6489 C1162.3927,453.6789 1158.6006,472.8497 1151.5606,508.5697" fill="none" id="O-OI" style="stroke:#181818;stroke-width:1;"/><line style="stroke:#181818;stroke-width:1;" x1="1166.5419" x2="1174.3908" y1="411.9508" y2="413.4981"/><line style="stroke:#181818;stroke-width:1;" x1="1165.9616" x2="1173.8106" y1="414.8942" y2="416.4415"/><line style="stroke:#181818;stroke-width:1;" x1="1169.6927" x2="1171.24" y1="416.6489" y2="408.8"/><line style="stroke:#181818;stroke-width:1;" x1="1149.6269" x2="1153.9668" y1="518.381" y2="527.3902"/><line style="stroke:#181818;stroke-width:1;" x1="1149.6269" x2="1142.1932" y1="518.381" y2="525.0698"/><line style="stroke:#181818;stroke-width:1;" x1="1149.6269" x2="1148.08" y1="518.381" y2="526.23"/><ellipse cx="1150.7872" cy="512.4942" fill="none" rx="4" ry="4" style="stroke:#181818;stroke-width:1;"/><text fill="#000000" font-family="sans-serif" font-size="13" lengthAdjust="spacing" textLength="55.0278" x="1158.5" y="484.0669">contains</text></g><!--link PT to P--><g class="link" data-entity-1="PT" data-entity-2="P" data-source-line="108" data-uid="lnk23" id="link_PT_P"><path codeLine="108" d="M876.2483,128.609 C876.7183,157.919 876.9552,173.2923 877.5652,211.8423" fill="none" id="PT-P" style="stroke:#181818;stroke-width:1;"/><line style="stroke:#181818;stroke-width:1;" x1="872.1846" x2="880.1836" y1="124.6736" y2="124.5454"/><line style="stroke:#181818;stroke-width:1;" x1="872.2327" x2="880.2317" y1="127.6732" y2="127.545"/><line style="stroke:#181818;stroke-width:1;" x1="876.2483" x2="876.12" y1="128.609" y2="120.61"/><line style="stroke:#181818;stroke-width:1;" x1="877.7234" x2="883.8492" y1="221.841" y2="229.7451"/><line style="stroke:#181818;stroke-width:1;" x1="877.7234" x2="871.8508" y1="221.841" y2="229.9349"/><line style="stroke:#181818;stroke-width:1;" x1="877.7234" x2="877.85" y1="221.841" y2="229.84"/><ellipse cx="877.6285" cy="215.8418" fill="none" rx="4" ry="4" style="stroke:#181818;stroke-width:1;"/><text fill="#000000" font-family="sans-serif" font-size="13" lengthAdjust="spacing" textLength="45.7031" x="877.5" y="196.0669">type of</text></g><!--link B to P--><g class="link" data-entity-1="B" data-entity-2="P" data-source-line="109" data-uid="lnk24" id="link_B_P"><path codeLine="109" d="M1002.8158,127.4829 C985.3558,156.7929 974.0237,175.8269 951.0537,214.3769" fill="none" id="B-P" style="stroke:#181818;stroke-width:1;"/><line style="stroke:#181818;stroke-width:1;" x1="1001.4264" x2="1008.2994" y1="121.9994" y2="126.0936"/><line style="stroke:#181818;stroke-width:1;" x1="999.8911" x2="1006.764" y1="124.5767" y2="128.6709"/><line style="stroke:#181818;stroke-width:1;" x1="1002.8158" x2="1006.91" y1="127.4829" y2="120.61"/><line style="stroke:#181818;stroke-width:1;" x1="945.935" x2="946.9944" y1="222.9675" y2="232.9112"/><line style="stroke:#181818;stroke-width:1;" x1="945.935" x2="936.6856" y1="222.9675" y2="226.7688"/><line style="stroke:#181818;stroke-width:1;" x1="945.935" x2="941.84" y1="222.9675" y2="229.84"/><ellipse cx="949.0062" cy="217.8131" fill="none" rx="4" ry="4" style="stroke:#181818;stroke-width:1;"/><text fill="#000000" font-family="sans-serif" font-size="13" lengthAdjust="spacing" textLength="54.7168" x="969.5" y="196.0669">brand of</text></g><!--SRC=[jPJ1RXen48RlF8Mrnohi0-HG2I9LYd80KH17DB4dmSgklRMzq8ZatJksTxlsba1QgHV4_ZCUV_xzowYSTA-is5Wq1GFBDkmqOUnBIzyxATWjMpxGztHAFrvJK2E91p1y3uP4h45McTA0jKTjn6uFTfzLZAxyObHjpKvtbKJbRjXth2eqDsmcQgdUgOiR18TY1uvw1VrriiR9-sI27UlIQD5o5t2N4RU9qfYO-giSLw3bHZPEQaMwmv_E4nl9VPj0BckeIB5EynTIf78V4b5NG8-RVdjWqw_CsrXstldzNnjContvckIogr7Nem4bqhQv5yfUziPXhGy4y5J1CtKzQZ8Ir1bF_EJeopeQCn0ChepkC9aIDWxhvt5vWlQPzIiyI3o60Qium0HbF26xhioQSYXrYRjWhm4drVDmJRgkYMIurwj9MXZHnNuHSRKNpkN-qYLh1zNkN8R0jJPBtqT10Y4CMfjkCejIEPJ-0BztM4Vu-uHUaZe-GNAiE3siBtlvBsxaHmiHeJSzd9iEj6jQVqgRUf00tu5nltdlEbvEuZdSAuR_CojvUIaDMsdtbRG3vxRZF7Q5_yXw1QrBGw2QHQWiCv_ciSuWkZoKqQBa0TVM9vfhaR-TNBVAcL7lNglHOx1XRs_JgJxHstpB2lz6sc8G5rviAk2OgYkl7drsKvLoGZA5YkwF-R0ajMrQwoyegS_wSkUJ7pnPPljHjHYaHHW8JODW_D2a53baWh7CCQZK8w2WVHRvKAwL0wa2mJfpnp_FJ3yLatacXsVNwxy0]--></g></svg>